<?xml version="1.0" encoding="utf-8"?>
<!DOCTYPE svg PUBLIC "-//W3C//DTD SVG 1.0//EN" "http://www.w3.org/TR/2001/REC-SVG-20010904/DTD/svg10.dtd">
<svg version="1.0" xmlns="http://www.w3.org/2000/svg" width="696px" height="697px" viewBox="0 0 696 697" preserveAspectRatio="xMidYMid meet">
 <g fill="#fcfbe6">
  <path d="M329.3 696.3 c-2.8 -1.1 -1.1 -2.3 3.2 -2.3 3.3 0 4.5 0.4 4.5 1.5 0 1.5 -4.8 2 -7.7 0.8z"/>
  <path d="M362 695.5 c0 -1 1 -1.5 3 -1.5 3.2 0 4 1.4 1.4 2.4 -2.7 1 -4.4 0.7 -4.4 -0.9z"/>
  <path d="M315.8 695.3 c-1 -0.2 -1.8 -1.1 -1.8 -1.9 0 -1 1.3 -1.4 4.5 -1.4 3.8 0 4.5 0.3 4.5 2 0 1.5 -0.6 2 -2.7 1.9 -1.6 -0.1 -3.6 -0.3 -4.5 -0.6z"/>
  <path d="M284 690.9 c-21.4 -4.4 -37.9 -9.2 -58.6 -16.9 -15.8 -5.9 -25.4 -10.5 -25.4 -12.1 0 -2.1 7.5 -0.2 20.8 5.4 7.3 3.1 15.6 6.3 18.5 7.3 2.9 0.9 5.4 2 5.7 2.3 0.3 0.4 2.8 1.2 5.5 1.8 2.8 0.5 10.2 2.4 16.6 4.1 6.4 1.6 14.8 3.6 18.8 4.3 5.7 1.1 7.1 1.7 7.1 3.1 0 2 -1.8 2.1 -9 0.7z"/>
  <path d="M424 686 c0 -1.6 0.7 -2 3.5 -2 4 0 4.9 2.4 1.3 3.4 -3.8 1 -4.8 0.7 -4.8 -1.4z"/>
  <path d="M432 684 c0 -1.6 0.7 -2 3.5 -2 4 0 4.9 2.4 1.3 3.4 -3.8 1 -4.8 0.7 -4.8 -1.4z"/>
  <path d="M455 677 c0 -1.5 0.9 -2.1 4 -2.6 2.2 -0.4 4 -1 4 -1.5 0 -0.4 1.7 -1.1 3.8 -1.5 2 -0.4 4 -1.1 4.3 -1.7 0.4 -0.5 2.7 -1.2 5.3 -1.4 2.8 -0.4 4.6 -1.1 4.6 -1.8 0 -1.6 2.2 -2.5 6.1 -2.5 7.3 0 1.5 3.4 -19 11.1 -11.9 4.5 -13.1 4.6 -13.1 1.9z"/>
  <path d="M312.5 673 c-29.1 -3 -64.1 -12.5 -94.7 -25.6 -20.6 -8.8 -47.1 -24.3 -68.6 -40 -15.1 -11.1 -46.2 -42.2 -58.4 -58.4 -30.7 -40.8 -49.2 -79.9 -59.6 -126 -7.1 -31.3 -7.6 -36.4 -7.7 -73 0 -36 0.8 -45.2 6.1 -70 9.3 -43.5 23.8 -77.7 48.9 -115.5 11.9 -18 19.3 -27.1 34.6 -42.5 47 -47.5 96.2 -75.8 157.3 -90.5 21.7 -5.3 37.2 -7.5 59.4 -8.5 49.9 -2.4 95.7 4.7 137.2 21.1 37.5 14.9 72 36.4 101 63.2 30.9 28.4 53.2 58.1 72.1 95.8 22.7 45.4 32.9 90.4 32.9 144.9 0 29.3 -1 40.3 -6 65.3 -8.9 44.1 -19.8 72 -42.8 108.7 -12.8 20.6 -22.9 33.5 -39.2 50.4 -43.2 44.9 -96.4 76.5 -152.9 90.7 -37.3 9.4 -42.1 10.1 -79.1 10.4 -17.9 0.2 -36.1 0 -40.5 -0.5z m-10.7 -33.4 c-17.9 -12 -27.8 -20.1 -59.7 -48.9 -37.7 -34 -60.1 -47.4 -87.5 -52.2 -10.5 -1.8 -19.7 -1.9 -28.6 -0.2 l-6.4 1.2 16.9 17.1 c24.3 24.5 42.9 38.7 71.4 54.4 24.5 13.4 54.5 24.4 81.6 30 19.6 4 20.3 3.9 12.3 -1.4z m98.8 2.4 c3.2 -0.6 8.3 -1.5 11.2 -2.1 l5.3 -1.1 -13.3 -4.4 c-7.3 -2.4 -20 -7.8 -28.3 -11.8 -33.4 -16.5 -49.5 -28.9 -106.6 -82.1 -37.1 -34.7 -55.8 -47.5 -81.2 -56 -10.1 -3.3 -27.4 -6.5 -35.7 -6.5 -6.9 0 -24.4 2.9 -33.8 5.6 -8.8 2.5 -25.5 9.8 -27.2 11.9 -1.5 1.8 11.1 21 13.6 20.9 1 -0.1 5.3 -1 9.4 -2 10.5 -2.5 40 -2.5 51.7 -0.1 10.3 2.2 26.5 7.8 35.2 12.2 15.9 8 40.1 26.2 61.6 46.4 40.2 37.6 66.9 55.5 95.2 63.6 21 6.1 31.7 7.4 42.9 5.5z m81.5 -27.9 c13.8 -7 33.2 -19.2 47.2 -29.9 11.1 -8.5 12.3 -9.8 8.1 -8.8 -12.5 2.7 -27.2 3.8 -48.4 3.3 -19.5 -0.4 -24 -0.8 -34 -3 -49.9 -11.2 -80.3 -29.5 -133.5 -80.8 -45 -43.2 -54.2 -51.1 -75.5 -63.9 -35.3 -21.3 -69.1 -25.2 -105.8 -12.1 -17.9 6.4 -28.5 12.4 -44.1 24.9 -13.1 10.6 -24.5 24.2 -20.2 24.2 0.4 0 5 -2.2 10.2 -4.9 13.1 -6.8 26 -11.7 37.6 -14.3 8.5 -2 12.7 -2.3 31.3 -2.2 20 0 22.2 0.2 32.3 2.7 24.1 6 43.8 16.5 68.7 36.6 5.2 4.2 22.8 20.7 39 36.6 16.2 16 34.8 33.5 41.2 39.1 31.2 26.9 61.8 43.8 95.7 52.9 14.3 3.9 30 6.6 34.9 6 1.8 -0.2 8.7 -3.1 15.3 -6.4z m38.1 -80.7 c25.1 -4 52.1 -14.5 76.9 -29.7 7 -4.3 7.8 -5.2 12.6 -13.6 6.4 -11.1 14.3 -28.8 19.9 -44.5 l4.2 -11.8 -3.1 3 c-8.4 7.8 -31.1 22.9 -45.4 30.1 -16 8 -38.4 15.5 -57 19.1 -13.6 2.6 -40.1 3.7 -54.1 2.1 -31 -3.4 -57 -13 -85 -31.3 -14.3 -9.4 -19.9 -13.8 -38.2 -29.8 -31.7 -27.7 -40.1 -34.4 -57.9 -46.5 -16.9 -11.4 -27.3 -17 -42.4 -22.9 -47.6 -18.7 -100.9 -15.3 -148.7 9.6 -19.2 10 -45.8 29 -46.8 33.5 -0.3 1.3 4.6 25.3 5.4 26.2 0.2 0.2 4.1 -3.2 8.7 -7.5 24.5 -23.2 57.8 -38.9 92.4 -43.5 13.4 -1.8 43.4 -0.7 55.3 2 24.3 5.5 37.8 11.3 58.3 25 16.9 11.4 32.6 24.8 72.6 62.2 51.9 48.5 83.8 64.9 136.6 70.3 6.7 0.7 25.8 -0.4 35.7 -2z m-47.7 -73.9 c14.3 -3.7 36.3 -14.2 52.4 -25 24.1 -16 48.3 -40.9 68.8 -70.8 5 -7.3 7.2 -6.8 23.6 4.5 7.2 5 14.7 10.2 16.5 11.6 1.7 1.3 3.2 2 3.2 1.5 0 -0.6 -0.4 -6.6 -1 -13.4 -0.5 -6.8 -1.4 -21.8 -2 -33.4 -1.3 -25.3 -5 -82.8 -5.4 -83.2 -0.3 -0.3 -26.7 11 -39.1 16.7 -3.8 1.8 -11.9 5.4 -18 8 -33.7 14.7 -52.7 23 -54.2 23.8 -1.3 0.8 0.5 2.4 8.8 7.9 5.7 3.8 13.9 9.1 18.2 11.7 7.3 4.6 7.7 5 7.7 8.5 0 6 -17.1 29.1 -34.5 46.7 -16.4 16.5 -29.2 25.9 -47.5 35.2 -21.5 10.8 -35.3 14.2 -61 15.1 l-17.5 0.6 13.7 9.2 c18.2 12.2 34.4 19.9 51.3 24.3 8.8 2.3 8.9 2.3 16 0.5z m-410.5 -99 c5.8 -4 11.4 -8 12.4 -8.8 1.8 -1.2 2.1 -3.2 2.8 -17.3 2.3 -43.8 12.3 -80.5 32 -116.9 23.7 -43.7 54.8 -75.9 100.3 -103.9 26.5 -16.2 64.4 -29.6 97.5 -34.2 14.6 -2.1 57.7 -3 71 -1.5 58.5 6.6 111.4 30.3 153.6 68.8 24.1 22 46.2 51.5 60 80.1 2.5 5 4.9 9.2 5.4 9.2 1.7 0 22 -9.2 22 -10 0 -1.8 -6.4 -14.5 -12.5 -25.1 -22 -37.5 -56.8 -75.6 -88.5 -96.6 -38.9 -25.8 -73.1 -40.2 -116.6 -49.2 -29 -6 -66.5 -6.4 -97.7 -1.2 -46.4 7.9 -82.5 22 -120.5 47.3 -43 28.5 -78.4 68.1 -100.1 111.8 -17.8 36 -23.9 54.7 -29.8 91.5 -2 12.6 -2.6 21.1 -3 39.8 -0.3 13 -0.1 23.7 0.3 23.7 0.5 0 5.6 -3.4 11.4 -7.5z m273 -52 c9.5 -21.6 8.8 -20.5 13 -20.5 l3.7 0 10.7 22.8 c5.9 12.5 12.2 26 13.8 29.9 l3.1 7.3 8 -14.5 c9.4 -17 7.2 -16.1 27.1 -11.5 7.2 1.7 13.6 3 14.3 3 1.6 0 0.7 -2.5 -4.7 -13.5 -4.5 -9 -16.5 -35.8 -21.6 -48.2 -1.9 -4.6 -3.4 -9.8 -3.4 -11.7 0 -3.1 0.7 -3.9 6.4 -8 7.9 -5.6 10.2 -10 11.2 -21.1 0.5 -5.3 1.6 -10 3.4 -14 4.3 -9.7 4.3 -10.3 0.4 -18.6 -2.8 -5.7 -3.8 -9.3 -4.3 -15.6 -1 -10.4 -3.8 -15.4 -11.9 -21.1 -3.3 -2.3 -8.3 -7.1 -11.2 -10.7 -6.8 -8.6 -9.9 -10.3 -20.1 -11.4 -6.3 -0.6 -10 -1.6 -14.8 -4.1 -8.1 -4 -10.9 -4.1 -19.6 -0.2 -4.1 1.8 -9.7 3.3 -13.5 3.7 -12.8 1.3 -16 3.3 -24.4 14.8 -1.5 2.1 -5.8 6 -9.5 8.7 -8.5 6.2 -10.8 10.2 -11.6 20.5 -0.5 5.7 -1.5 9.9 -3.7 14.5 -3.8 8.2 -3.7 11.3 0.1 19.7 2.1 4.7 3.4 9.4 4 15.2 1.1 9.9 3.7 14.3 11.9 20.5 7.5 5.6 7.4 6.8 -4.4 32.8 -5.3 11.7 -10.9 24.2 -12.4 27.8 -1.5 3.6 -4.4 9.8 -6.4 13.8 -2 3.9 -3.3 7.2 -3 7.2 0.4 0 7.1 -1.6 15 -3.6 20.8 -5.2 19.3 -5.8 28.4 11.3 l7.5 14.2 6.3 -13.2 c3.5 -7.3 9 -19 12.2 -26.2z"/>
  <path d="M308 314.1 l-3.9 -7.9 -5.3 1.4 c-2.9 0.7 -7 1.4 -9 1.4 -3.7 0 -3.8 -0.1 -3.8 -3.4 0 -1.9 1.3 -6.3 2.9 -9.8 5.7 -12.5 10 -22.4 11.9 -27.3 1.6 -4.2 2.4 -5.1 4.8 -5.3 1.5 -0.2 4.7 0.6 7 1.7 2.5 1.3 7.1 2.4 11.1 2.7 3.7 0.3 8.7 1.2 11.1 2.1 4 1.4 4.2 1.6 4.2 5.7 0 3 -1.8 7.9 -6.6 18.1 -3.6 7.7 -7.9 17.3 -9.7 21.3 -3.1 7.1 -3.2 7.2 -6.9 7.2 -3.7 0 -3.8 -0.1 -7.8 -7.9z"/>
  <path d="M376.3 320.8 c-0.5 -0.7 -5.1 -10.4 -10.1 -21.6 -10.8 -23.8 -11.4 -27 -5.4 -29.5 2 -0.8 7.2 -1.8 11.5 -2.1 4.8 -0.3 8.8 -1.1 10.3 -2.1 3.1 -2 10.3 -1.7 11.5 0.5 4.4 8.3 16.9 38.2 16.9 40.3 0 2.6 -0.2 2.7 -4.7 2.7 -2.7 0 -6.9 -0.7 -9.5 -1.4 l-4.7 -1.5 -4.1 8 c-3.9 7.5 -4.3 7.9 -7.4 7.9 -1.9 0 -3.8 -0.6 -4.3 -1.2z"/>
  <path d="M332.3 257.5 c-19 -4.1 -34.4 -18.3 -41.5 -38.5 -2.9 -8 -3.6 -26.4 -1.4 -35 3.2 -12.6 10 -23.9 18.8 -31.4 5.6 -4.9 18.9 -11.3 25.7 -12.6 7.2 -1.3 22.7 -1.3 29.3 0.1 21.3 4.5 38.4 22 43.3 44.3 2.2 10 1.6 25 -1.4 34.7 -2.6 8.3 -10.2 20.1 -16.7 25.7 -6.1 5.4 -19 11.7 -26.8 13.1 -8 1.5 -21.7 1.3 -29.3 -0.4z m27.8 -21 c8.3 -3 18.7 -12.4 23.1 -20.9 8.7 -17 2.4 -38.2 -14.7 -49.1 -14 -8.9 -27.1 -8.8 -41.2 0.4 -7 4.6 -9.1 6.8 -13.7 14.5 -5.1 8.5 -6.3 15.3 -4.1 24.3 3.4 14.5 14.1 26.1 28.5 30.8 8.1 2.7 14.4 2.7 22.1 0z"/>
  <path d="M188.3 657.4 c-12.4 -6.5 -30.3 -17.4 -40.7 -24.9 -9.5 -6.7 -30.6 -23.4 -30.6 -24.1 0 -0.2 1.6 -0.4 3.5 -0.4 2.8 0 3.5 0.4 3.5 2 0 1.5 0.7 2 2.5 2 2 0 2.5 0.5 2.5 2.5 0 2.1 0.5 2.5 3 2.5 2 0 3 0.5 3 1.5 0 0.8 0.9 1.5 2 1.5 1.1 0 2 0.7 2 1.5 0 0.8 0.9 1.5 2 1.5 1.1 0 2 0.7 2 1.5 0 0.8 0.9 1.5 2 1.5 1.1 0 2 0.5 2 1 0 0.6 0.7 1 1.5 1 0.9 0 1.8 0.7 2.1 1.5 0.4 0.8 1.2 1.5 2 1.5 0.8 0 1.4 0.9 1.4 2 0 1.6 0.7 2 3 2 1.7 0 3 0.5 3 1 0 0.6 0.7 1 1.5 1 0.8 0 1.5 0.4 1.5 0.9 0 0.5 1.1 1.2 2.5 1.5 1.4 0.4 2.5 1.1 2.5 1.6 0 0.6 0.7 1 1.5 1 0.8 0 1.5 0.7 1.5 1.5 0 0.9 0.9 1.5 2.5 1.5 1.6 0 2.5 0.6 2.5 1.5 0 0.8 0.9 1.5 2 1.5 3.2 0 7 2.2 7 4.2 0 1.3 0.8 1.8 3 1.8 4.7 0 10 3 10 5.7 0 1.3 -0.2 2.3 -0.5 2.3 -0.2 0 -4.4 -2.1 -9.2 -4.6z"/>
  <path d="M498 659.8 c0 -1.8 1.7 -3.2 8 -6.5 7.3 -3.9 14 -5.6 14 -3.5 0 1 -12.7 8.4 -18.2 10.7 -3.7 1.5 -3.8 1.5 -3.8 -0.7z"/>
  <path d="M545 632.1 c0 -2.9 0.3 -3.1 3.5 -3.1 3.1 0 3.5 -0.3 3.5 -2.5 0 -2.2 0.4 -2.5 3.7 -2.5 3.7 0 3.7 0 1.8 1.8 -1.1 1 -4.4 3.6 -7.2 5.6 l-5.3 3.8 0 -3.1z"/>
  <path d="M572 611.1 c0 -2.9 0.3 -3.1 3.6 -3.1 3.9 0 3.8 0.9 -0.6 4 l-3 2.1 0 -3z"/>
  <path d="M108.5 600.7 l-5 -4.6 3.6 -0.1 c4.4 0 7.2 2.7 6.7 6.6 l-0.3 2.7 -5 -4.6z"/>
  <path d="M583 601.3 c0 -2.2 2 -4.8 9.9 -12.6 8.5 -8.5 10.3 -9.8 12.7 -9.5 2.8 0.3 2.6 0.6 -7.1 10.7 -5.5 5.7 -11.2 11.2 -12.7 12.3 l-2.8 1.9 0 -2.8z"/>
  <path d="M94.1 586.5 l-4.3 -5 2.7 -0.3 c3.9 -0.5 6.7 2.6 6.3 6.9 l-0.3 3.3 -4.4 -4.9z"/>
  <path d="M85.2 576.5 l-3.3 -4 2.7 -0.3 c3.5 -0.5 4.6 0.8 4.2 4.9 l-0.3 3.4 -3.3 -4z"/>
  <path d="M610 573.6 c0 -3.3 0.2 -3.6 3.1 -3.6 l3 0 -2.1 3 c-3.1 4.4 -4 4.5 -4 0.6z"/>
  <path d="M73.8 562.8 c-11.8 -14.5 -27.5 -39.5 -37.3 -59.3 -4 -8.2 -7.8 -16.2 -8.4 -17.7 -1 -2.6 -0.9 -2.8 1.4 -2.8 2.1 0 2.5 0.5 2.5 3 0 2 0.5 3 1.5 3 1 0 1.5 1.1 1.5 3.5 0 2.2 0.5 3.5 1.3 3.5 1.8 0 7.7 12.4 7.7 16 0 2.2 0.5 3 1.8 3 1.1 0 2.7 1.8 4.2 4.7 1.4 2.6 3.3 5.6 4.2 6.7 1 1.1 2.1 2.9 2.4 4 0.4 1.1 1.3 2.6 2 3.4 0.8 0.7 1.4 2 1.4 2.8 0 0.8 0.5 1.4 1 1.4 0.6 0 1 0.7 1 1.5 0 0.8 0.5 1.5 1 1.5 0.6 0 1 0.9 1 2 0 1.1 0.7 2 1.5 2 0.8 0 1.5 0.7 1.5 1.5 0 0.8 0.5 1.5 1 1.5 0.6 0 1 0.6 1 1.4 0 0.8 0.7 1.6 1.5 2 0.8 0.3 1.5 1.2 1.5 2 0 0.7 0.7 1.6 1.5 2 0.8 0.3 1.5 1.5 1.5 2.6 0 1.1 0.7 2 1.5 2 1 0 1.5 1.1 1.5 3.5 0 1.9 -0.2 3.5 -0.4 3.5 -0.2 0 -1.9 -1.9 -3.8 -4.2z"/>
  <path d="M618 563.8 c0 -3.1 0.3 -3.8 2 -3.8 1.5 0 2 -0.7 2 -2.5 0 -1.6 0.6 -2.5 1.5 -2.5 0.8 0 1.5 -0.9 1.5 -2 0 -1.1 0.5 -2 1 -2 0.6 0 1 -0.7 1 -1.5 0 -0.8 0.5 -1.5 1 -1.5 0.6 0 1 -0.7 1 -1.5 0 -0.9 0.7 -1.8 1.5 -2.1 0.8 -0.4 1.5 -1.2 1.5 -2 0 -0.8 0.5 -1.4 1 -1.4 0.6 0 1 -0.4 1 -1 0 -0.5 3.8 -7.4 8.5 -15.2 4.7 -7.9 10.9 -18.9 13.8 -24.5 2.9 -5.7 5.8 -10.3 6.5 -10.3 0.7 0 1.2 -1.3 1.2 -3.1 0 -2.8 1.4 -6.7 2.9 -7.9 0.4 -0.3 1.2 -2.7 1.9 -5.5 0.7 -2.7 1.7 -5.1 2.3 -5.3 0.5 -0.2 0.9 -1.5 0.9 -2.8 0 -1.9 0.5 -2.4 2.4 -2.4 l2.5 0 -3 8.3 c-10.8 29.6 -35.3 72.6 -52.8 92.7 l-3 3.5 -0.1 -3.7z"/>
  <path d="M25.6 480.1 c-0.3 -0.4 -1 -2 -1.5 -3.5 -1 -2.4 -0.8 -2.6 1.4 -2.6 2.2 0 2.5 0.4 2.5 3.5 0 3.3 -1.2 4.6 -2.4 2.6z"/>
  <path d="M20 465.4 c-2.3 -5.3 -9 -27 -9 -29 0 -0.8 0.8 -1.4 1.8 -1.4 1.4 0 2.5 2.6 5.5 12.8 2.1 7 3.7 13.3 3.7 14 0 0.6 0.5 1.2 1 1.2 0.6 0 1 1.6 1 3.5 0 4.8 -1.7 4.4 -4 -1.1z"/>
  <path d="M676 455.5 c0 -1.9 0.5 -3.5 1 -3.5 0.6 0 1 -1.6 1 -3.5 0 -1.9 0.5 -3.5 1 -3.5 0.6 0 1 -1 1 -2.2 0 -1.3 1 -6.2 2.2 -11 1.8 -7.1 2.6 -8.8 4.1 -8.8 1.7 0 1.8 0.5 1.2 3.6 -0.8 4.6 -8.1 30 -9 31.4 -1.3 2.1 -2.5 0.9 -2.5 -2.5z"/>
  <path d="M8.1 425.3 c-1.9 -8.2 -6.1 -32.3 -6.1 -35 0 -0.7 0.9 -1.3 2 -1.3 1.6 0 2 0.7 2 3.3 0 1.7 1.6 11 3.5 20.5 3.9 19.3 4.1 21.2 2.1 21.2 -1 0 -2.1 -2.8 -3.5 -8.7z"/>
  <path d="M686 417.5 c0 -2.8 0.4 -3.5 2 -3.5 2.1 0 2.4 1 1.4 4.8 -1 3.6 -3.4 2.7 -3.4 -1.3z"/>
  <path d="M689 400.5 c0 -2.8 0.4 -3.5 2 -3.5 2.1 0 2.4 1 1.4 4.8 -1 3.6 -3.4 2.7 -3.4 -1.3z"/>
  <path d="M1.6 385.8 c-1 -3.8 -0.7 -4.8 1.4 -4.8 1.6 0 2 0.7 2 3.5 0 4 -2.4 4.9 -3.4 1.3z"/>
  <path d="M0.6 376.8 c-1 -3.8 -0.7 -4.8 1.4 -4.8 1.6 0 2 0.7 2 3.5 0 4 -2.4 4.9 -3.4 1.3z"/>
  <path d="M1.5 309.3 c1.1 -8.6 1.6 -10.3 3.1 -10.3 1.6 0 1.7 1.9 0.8 9.8 -0.6 4.2 -1 5.2 -2.6 5.2 -1.7 0 -1.9 -0.5 -1.3 -4.7z"/>
  <path d="M5.5 283.8 c1.7 -10.8 3.7 -17.8 5.1 -17.8 1.8 0 1.8 2.4 -0.3 13.2 -1.4 7.4 -2 8.8 -3.6 8.8 -1.6 0 -1.8 -0.5 -1.2 -4.2z"/>
  <path d="M686 280 c0 -4.5 2.3 -5.7 3.4 -1.7 1.1 4.1 0.7 5.7 -1.4 5.7 -1.7 0 -2 -0.7 -2 -4z"/>
  <path d="M681.5 262.3 c-1.5 -5.9 -4.3 -15.2 -6.1 -20.7 -1.9 -5.5 -3.4 -10.8 -3.4 -11.8 0 -1 -0.4 -1.8 -0.8 -1.8 -0.9 0 -4.2 -8.6 -4.2 -10.8 0 -0.7 -0.7 -2 -1.5 -2.8 -1.7 -1.7 -2.1 -8.4 -0.4 -8.4 2.7 0 19.3 46.9 22.4 63.3 0.6 3.2 0.5 3.7 -1.2 3.7 -1.7 0 -2.4 -1.7 -4.8 -10.7z"/>
  <path d="M11 259.8 c0 -1.6 5.7 -20.5 6.5 -21.8 1.3 -2.1 2.5 -0.8 2.5 2.5 0 1.9 -0.4 3.5 -1 3.5 -0.5 0 -1 1.2 -1 2.7 0 1.5 -0.7 5.3 -1.6 8.5 -1.3 4.4 -2.1 5.8 -3.5 5.8 -1.1 0 -1.9 -0.6 -1.9 -1.2z"/>
  <path d="M21.4 226.8 c4.1 -10.9 5.5 -13.8 6.5 -13.8 0.6 0 1.1 1.6 1.1 3.5 0 1.9 -0.4 3.5 -1 3.5 -0.5 0 -1 0.8 -1 1.8 0 0.9 -0.8 3.8 -1.7 6.5 -1.4 3.7 -2.2 4.7 -4 4.7 l-2.3 0 2.4 -6.2z"/>
  <path d="M31.5 202.3 c4.3 -10.4 24.7 -45.8 28.6 -49.8 1.9 -1.9 1.9 -1.9 1.9 1.8 0 2 -0.4 3.7 -1 3.7 -0.5 0 -1 0.7 -1 1.5 0 0.8 -0.7 1.5 -1.5 1.5 -0.9 0 -1.5 0.9 -1.5 2.5 0 1.4 -0.4 2.5 -1 2.5 -0.5 0 -1 0.7 -1 1.5 0 0.8 -0.7 1.5 -1.5 1.5 -0.8 0 -1.5 0.9 -1.5 1.9 0 3 -1.1 5.1 -2.6 5.1 -0.8 0 -1.4 0.9 -1.4 2 0 2.9 -2.1 7 -3.7 7 -0.7 0 -1.3 0.9 -1.3 2 0 2.4 -4.1 11 -5.2 11 -0.4 0 -0.8 0.7 -0.8 1.5 0 3.2 -2.3 6.5 -4.7 6.5 -2.3 0 -2.3 0 -0.8 -3.7z"/>
  <path d="M658 196.5 c0 -4.3 1.4 -4.5 3.5 -0.5 2 3.8 1.9 4 -1 4 -2.2 0 -2.5 -0.4 -2.5 -3.5z"/>
  <path d="M652.6 188.4 c-0.3 -0.9 -0.6 -2.9 -0.6 -4.5 0 -2.1 -0.5 -2.9 -1.8 -2.9 -1.1 0 -2.7 -1.8 -4.2 -4.7 -1.4 -2.6 -3.3 -5.6 -4.3 -6.8 -1 -1.1 -2 -3 -2.3 -4.2 -0.4 -1.3 -1 -2.3 -1.5 -2.3 -0.5 0 -0.9 -0.7 -0.9 -1.5 0 -0.8 -0.4 -1.5 -0.8 -1.5 -0.9 0 -13.2 -17.4 -13.2 -18.7 0 -0.5 -0.9 -1.4 -2 -2.1 -1.1 -0.7 -2 -1.8 -2 -2.6 0 -0.8 -0.7 -1.6 -1.5 -2 -0.8 -0.3 -1.5 -1.4 -1.5 -2.5 0 -1 -0.9 -2.1 -2 -2.4 -1.5 -0.4 -2 -1.4 -2 -4.1 0 -2 0.2 -3.6 0.4 -3.6 0.8 0 12.1 14.1 18.8 23.5 9.7 13.7 26.8 41.6 26.8 43.9 0 1.4 -4.8 0.5 -5.4 -1z"/>
  <path d="M69.1 139.5 c5 -6.9 5.9 -7.4 5.9 -3.1 0 2.5 -0.4 3.6 -1.5 3.6 -0.8 0 -1.5 0.9 -1.5 2 0 1.6 -0.7 2 -3.1 2 l-3 0 3.2 -4.5z"/>
  <path d="M84.8 120.3 c1.1 -1.5 7.1 -8 13.3 -14.3 10.9 -11.1 11.3 -11.4 11.7 -8.6 0.3 2.4 -0.6 3.8 -4.9 8.2 -3.9 4 -6.1 5.4 -8.1 5.4 -2.4 0 -2.8 0.4 -2.8 3 0 2.3 -0.5 3 -1.9 3 -1.4 0 -2.1 0.8 -2.3 2.8 -0.2 2.3 -0.8 2.8 -3.7 3 l-3.3 0.3 2 -2.8z"/>
  <path d="M591.1 105.6 c-5.2 -5.2 -6.2 -6.8 -5.9 -9.2 l0.3 -2.8 6.8 6.3 c3.7 3.5 7.7 7.7 8.8 9.3 l2 2.8 -2.8 0 c-2.2 0 -4.4 -1.5 -9.2 -6.4z"/>
  <path d="M115 89.7 c0 -0.6 19.2 -16.7 24.8 -20.8 l4.2 -3.1 0 3.1 c0 2.4 -0.4 3.1 -2 3.1 -1.1 0 -2 0.7 -2 1.5 0 0.8 -0.8 1.5 -1.8 1.5 -0.9 0 -2.2 1 -2.7 2.3 -0.6 1.3 -2.1 2.3 -3.7 2.5 -1.9 0.2 -2.8 1 -3 2.5 -0.2 1.5 -1.1 2.3 -3 2.5 -1.9 0.2 -2.8 1 -3 2.5 -0.2 1.7 -1.1 2.3 -4 2.5 -2.1 0.2 -3.8 0.1 -3.8 -0.1z"/>
  <path d="M573.2 88.8 c-0.7 -0.7 -1.2 -2 -1.2 -3 0 -1.3 -0.8 -1.8 -2.5 -1.8 -2.1 0 -2.5 -0.5 -2.5 -3.1 l0 -3 2.8 1.9 c1.5 1.1 4.7 3.8 7.2 6.1 l4.5 4 -3.5 0.1 c-2 0 -4.1 -0.5 -4.8 -1.2z"/>
  <path d="M557 74.5 c0 -0.8 -0.9 -1.5 -2 -1.5 -1.1 0 -2.3 -0.7 -2.6 -1.5 -0.4 -0.8 -1.1 -1.5 -1.6 -1.5 -1.3 0 -25.2 -16 -25.6 -17.1 -0.2 -0.5 -1 -0.9 -1.8 -0.9 -0.8 0 -1.4 -0.4 -1.4 -1 0 -0.5 -0.7 -1 -1.5 -1 -0.9 0 -1.5 -0.9 -1.5 -2.5 0 -1.4 0.3 -2.5 0.6 -2.5 2.1 0 34.2 21.6 41.4 27.9 l3.5 3 -3.7 0.1 c-2.7 0 -3.8 -0.4 -3.8 -1.5z"/>
  <path d="M160 55.2 c0 -0.8 5.2 -4.2 6.4 -4.2 0.3 0 0.6 1.1 0.6 2.5 0 2.2 -0.4 2.5 -3.5 2.5 -1.9 0 -3.5 -0.4 -3.5 -0.8z"/>
  <path d="M172 48.2 c0 -1 21.7 -13.2 23.5 -13.2 0.3 0 0.5 1.1 0.5 2.5 0 1.8 -0.5 2.5 -2 2.5 -1.1 0 -2 0.4 -2 0.8 0 1.1 -6.6 4.2 -9 4.2 -1.1 0 -2 0.6 -2 1.4 0 0.8 -0.7 1.7 -1.6 2 -2.3 0.9 -7.4 0.7 -7.4 -0.2z"/>
  <path d="M210.2 28.8 c0.3 -0.7 1.9 -1.8 3.6 -2.5 3.1 -1.3 3.2 -1.2 3.2 1.2 0 2.2 -0.4 2.5 -3.6 2.5 -2.3 0 -3.4 -0.4 -3.2 -1.2z"/>
  <path d="M220.2 24.8 c0.3 -0.7 3.2 -2.3 6.6 -3.5 l6.2 -2.2 0 2.3 c0 1.8 -0.8 2.5 -3.9 3.4 -5.1 1.6 -9.4 1.5 -8.9 0z"/>
  <path d="M461 20.5 c0 -2.4 0.1 -2.5 3.2 -1.2 4.6 1.9 4.8 3.7 0.4 3.7 -3.2 0 -3.6 -0.3 -3.6 -2.5z"/>
  <path d="M446 16 c0 -2.2 2 -2.6 5.1 -1 3 1.6 2.3 3 -1.6 3 -2.8 0 -3.5 -0.4 -3.5 -2z"/>
  <path d="M257 12.6 c0 -0.8 1.9 -1.8 4.4 -2.5 6.2 -1.5 7.6 -1.4 7.6 0.8 0 1.3 -1 2 -3.1 2.5 -5.3 1 -8.9 0.7 -8.9 -0.8z"/>
  <path d="M432 12 c0 -2.1 1 -2.4 4.8 -1.4 3.6 1 2.7 3.4 -1.3 3.4 -2.8 0 -3.5 -0.4 -3.5 -2z"/>
  <path d="M412.3 9.7 c-8.5 -1.7 -10.3 -2.4 -10.3 -3.9 0 -2.3 0.3 -2.3 15 0.7 6.8 1.4 12.4 2.5 12.6 2.5 0.2 0 0.4 0.7 0.4 1.5 0 2 -4.6 1.8 -17.7 -0.8z"/>
  <path d="M286 6.5 c0 -0.8 1.3 -1.6 3.3 -2 9.5 -1.6 26.2 -3.6 35.8 -4.1 10.5 -0.7 10.9 -0.6 10.9 1.3 0 1.8 -0.9 2 -12.2 2.7 -6.8 0.3 -16.8 1.3 -22.3 2.1 -12.9 1.9 -15.5 1.9 -15.5 0z"/>
  <path d="M381 3 c0 -2.1 1 -2.4 4.8 -1.4 3.6 1 2.7 3.4 -1.3 3.4 -2.8 0 -3.5 -0.4 -3.5 -2z"/>
  <path d="M364 2 c0 -1.7 0.7 -2 4.8 -2 6.1 0 9.2 0.9 9.2 2.6 0 1.1 -1.7 1.4 -7 1.4 -6.3 0 -7 -0.2 -7 -2z"/>
 </g>
 <g fill="#cca847">
  <path d="M324 695.9 c-44.8 -3.2 -91.1 -16.4 -133.5 -37.9 -69 -35 -122.3 -89.6 -156.6 -160.5 -17.2 -35.5 -26.8 -68.8 -32 -110.3 -1.8 -14.5 -2 -20.4 -1.6 -45.2 0.5 -30.7 1.7 -41.1 7.6 -68.5 8.6 -39.7 24.7 -78.2 47.9 -114.5 26.9 -42.1 72.7 -86.3 114.4 -110.3 22.7 -13.1 38.1 -20.6 53.8 -26.2 3.6 -1.3 9.7 -3.6 13.5 -5 7.7 -2.9 28.4 -8.4 41 -10.9 24 -4.7 57 -7.1 83.7 -6.2 23.2 0.8 30.1 1.6 55.3 6.6 51.7 10.1 91 27.9 140 63.4 17.4 12.5 47.2 41.3 60.7 58.6 34 43.6 53.1 81.3 66.8 132 3.3 12 3.5 12.8 6.8 32.5 3.7 21.2 4.5 34 3.9 62.3 -0.4 19.6 -1 30.3 -2.5 40.2 -7 46 -20.8 85.6 -43.7 125.1 -17.5 30.3 -30.3 47.2 -53.3 70.2 -31.6 31.8 -54 48.1 -93.7 68.2 -56.7 28.7 -116.5 40.9 -178.5 36.4z m72 -28.3 c24.5 -4.6 51.9 -12.1 68 -18.5 44.8 -18 84.1 -44.5 118 -79.7 16.3 -16.9 26.4 -29.8 39.2 -50.4 23 -36.7 33.9 -64.6 42.8 -108.7 4.9 -24.5 6 -36.1 6 -62.3 0 -51.3 -10.7 -97.6 -32.9 -141.9 -18.9 -37.7 -41.2 -67.4 -72.1 -95.8 -42.1 -38.8 -94.7 -66.1 -149.6 -77.7 -24.8 -5.2 -40 -6.7 -66.9 -6.7 -31.6 0 -46 1.6 -75.1 8.6 -61 14.6 -110.2 43 -157.3 90.5 -15.3 15.4 -22.7 24.5 -34.6 42.5 -25.1 37.8 -39.6 72 -48.9 115.5 -5.2 24.4 -6.1 34.3 -6 67 0 33.3 0.7 39.4 7.6 70 10.4 46.1 28.9 85.2 59.6 126 12.2 16.2 43.3 47.3 58.4 58.4 44.5 32.6 92.1 53.5 143.3 62.6 19.1 3.4 26.2 3.9 57.5 3.5 26.6 -0.3 30.8 -0.6 43 -2.9z"/>
  <path d="M47.6 371.5 c-1.3 -5.1 -0.7 -44 0.9 -56 6 -46.1 11.9 -65.7 31.6 -105.5 36.2 -73 108.1 -130.9 189.2 -152.4 71.8 -19.1 147.3 -11.9 211.1 20.1 20.6 10.3 43.4 24.7 56.6 35.7 30.5 25.4 53.7 52.4 72.3 84.2 6.6 11.4 14.7 27.7 14.7 29.9 0 0.6 -1.7 1.9 -3.7 3 -6 2.8 -24.4 10.5 -25.4 10.5 -0.5 0 -3.1 -4.6 -5.8 -10.2 -14.3 -29.6 -36.1 -58.8 -60.5 -81.1 -28.2 -25.7 -58.3 -43.3 -97.3 -56.7 -12.8 -4.5 -39.6 -10.2 -56.3 -12.1 -13 -1.5 -50 -0.6 -65 1.5 -32.9 4.6 -71 17.9 -97.5 34.2 -45.5 28 -76.6 60.2 -100.3 103.9 -19.2 35.5 -29.9 74 -31.7 113.6 -0.9 19.9 -0.7 19.2 -7.3 23.7 -3.1 2.1 -9.7 6.6 -14.6 10 -5 3.4 -9.3 6.2 -9.7 6.2 -0.4 0 -1 -1.1 -1.3 -2.5z"/>
  <path d="M308.2 340.8 c-4.5 -8.4 -8.7 -16.1 -9.4 -17.1 -1.2 -1.6 -2 -1.5 -13.8 1.4 -17.2 4.3 -25.3 6 -25.8 5.4 -0.3 -0.2 2.5 -6.9 6.2 -14.7 7.8 -16.5 8 -16.9 19.8 -43.2 4.9 -10.9 8.7 -20.3 8.6 -20.7 -0.2 -0.5 -2.5 -2.6 -5.3 -4.7 -8 -6 -10.5 -10.5 -11.6 -20.3 -0.6 -5.9 -1.9 -10.5 -4.1 -15.4 -4.4 -9.5 -4.4 -15.6 -0.2 -25 2.3 -5.1 3.4 -9.2 3.9 -15 0.8 -10.3 3.1 -14.3 11.6 -20.5 3.7 -2.7 8 -6.6 9.5 -8.7 8.4 -11.5 11.6 -13.5 24.4 -14.8 3.9 -0.4 9.3 -1.9 13.5 -3.8 9.7 -4.4 16.5 -4.4 25.5 0.3 5 2.5 8.5 3.5 14.9 4.1 10.2 1.1 13.3 2.8 20.1 11.4 2.9 3.6 7.9 8.4 11.2 10.7 8.1 5.7 10.9 10.7 11.9 21.1 0.5 6.4 1.5 9.8 4.4 15.7 4.4 9 4.3 13.8 -0.3 24 -2 4.5 -3.1 9 -3.6 14.5 -1 11.1 -3.3 15.5 -11.2 21.1 -5.4 3.9 -6.4 5 -5.8 6.8 1.5 4.6 19.1 44.6 23.9 54.1 3.3 6.6 9.5 21.3 9.5 22.6 0 0.3 -8.4 -1.4 -18.7 -3.7 -14.2 -3.3 -18.9 -4 -19.5 -3.1 -0.5 0.7 -4.7 8.3 -9.6 16.9 -4.8 8.7 -8.9 15.8 -9.2 15.8 -0.3 0 -2.5 -4.6 -4.9 -10.2 -6.6 -15.6 -25.3 -54.8 -26.1 -54.8 -0.8 0 -2.1 2.9 -25.3 53.8 -2.8 6.1 -5.4 11.2 -5.8 11.2 -0.3 0 -4.3 -6.9 -8.7 -15.2z m9.4 -24 c0.4 -1.3 4.5 -10.3 9.1 -20.2 4.6 -9.8 8.6 -18.9 8.9 -20.1 0.5 -2 0 -2.5 -3.8 -3.8 -2.4 -0.9 -7.4 -1.8 -11.2 -2.1 -4 -0.3 -8.5 -1.4 -10.7 -2.6 l-3.9 -2 -1.5 3.6 c-0.8 2 -1.5 3.8 -1.5 4 0 0.4 -5.8 13.6 -11.2 25.3 -1.6 3.5 -2.7 6.5 -2.5 6.7 0.2 0.3 4 -0.4 8.3 -1.5 4.3 -1 8.2 -1.6 8.7 -1.4 0.4 0.2 2.5 4 4.7 8.4 2.2 4.3 4.4 7.9 4.9 7.9 0.6 0 1.3 -1 1.7 -2.2z m66.8 -4.5 c5.5 -10.8 4.9 -10.5 13.1 -8.3 3.9 1 7.7 1.9 8.6 1.9 1.3 0.1 -0.1 -3.8 -6.2 -17.1 -4.3 -9.5 -7.9 -17.8 -7.9 -18.4 0 -0.6 -0.7 -1.7 -1.6 -2.5 -1.3 -1 -2 -1 -4.5 0.5 -1.8 1.1 -5.9 1.9 -10.7 2.3 -7.4 0.4 -15.2 2.7 -15.2 4.4 0 1.1 18.1 41 19.3 42.7 0.5 0.6 1.1 1.2 1.3 1.2 0.2 0 1.9 -3 3.8 -6.7z m-25.8 -57.4 c7.8 -1.4 20.7 -7.7 26.8 -13.1 14.9 -13 22.3 -35.4 18.1 -54.4 -6.8 -31.1 -35.4 -50.2 -66.6 -44.4 -6.8 1.3 -20.1 7.7 -25.7 12.6 -13.2 11.3 -21 29.5 -19.9 46.4 2.3 34.8 33.2 59.1 67.3 52.9z"/>
  <path d="M335 239.5 c-19.2 -6.2 -31.4 -24.7 -29.7 -44.8 1.6 -18.5 17.3 -34.7 36.7 -37.8 13.6 -2.2 28.7 3.3 38.4 14.1 10.7 11.9 13.2 31.1 6.1 46.8 -3 6.5 -13.2 16.9 -19.5 20 -9.9 4.7 -20.8 5.3 -32 1.7z"/>
 </g>
 <g fill="#18537b">
  <path d="M307 647.4 c-34.2 -4.4 -71.1 -16.4 -102.1 -33.4 -28.4 -15.6 -47.1 -29.9 -71.2 -54.2 -16.2 -16.3 -20.5 -21.3 -19.5 -22.4 1.3 -1.3 17 -3.4 25.3 -3.4 34.3 0 61.3 13.7 105.1 53.2 39.1 35.3 54.8 47.4 78.9 60.6 1.7 1 1.4 1.1 -2 1.1 -2.2 -0.1 -8.7 -0.7 -14.5 -1.5z"/>
  <path d="M372.6 644 c-37.6 -7.9 -58.3 -19.5 -99.6 -55.9 -4.1 -3.6 -10.2 -9.1 -13.5 -12.2 -21.5 -20.2 -45.7 -38.4 -61.6 -46.4 -27.7 -14 -59.3 -17.8 -87.3 -10.5 -4.4 1.2 -8.5 1.9 -9.2 1.6 -1.3 -0.5 -8.9 -11.7 -14.7 -21.7 l-2.8 -4.7 11.3 -5.6 c12.8 -6.4 24 -9.8 39.1 -12 19.2 -2.9 37.9 -1.3 56.4 4.9 25.4 8.5 44.1 21.3 81.2 56 56.9 53 72.9 65.4 106.3 82 12.6 6.3 29.8 12.6 49.8 18.5 2.2 0.6 1.8 0.9 -3.5 2.5 -10.2 3 -26.4 5.5 -34.9 5.4 -4.5 0 -12.1 -0.9 -17 -1.9z"/>
  <path d="M451 622.4 c-23.2 -3.6 -49.9 -12.9 -71 -24.7 -27 -15.1 -44.4 -29.4 -88 -72.2 -16.2 -15.9 -33.8 -32.4 -39 -36.6 -24.9 -20.1 -44.6 -30.6 -68.7 -36.6 -9.7 -2.4 -12.6 -2.7 -29.3 -2.7 -15.5 0 -20.1 0.3 -28.3 2.2 -14.8 3.3 -36.4 12.4 -47.7 20.1 l-4.5 3 -2.4 -4.9 -2.4 -4.9 5.9 -7.2 c7 -8.6 18.7 -18.9 29.9 -26.3 27.1 -18 58 -25.8 89 -22.6 19.8 2 35.4 7.4 54.5 19 21.3 12.8 30.5 20.7 75.5 63.9 20.5 19.8 32 29.8 45.2 39.7 29.7 22.3 53.4 33.3 88.3 41.1 14 3.1 42.6 4.2 59.2 2.4 8.4 -1 28.6 -5.2 36.6 -7.7 2.7 -0.9 -11 11.7 -21.5 19.8 -14.1 10.7 -33.4 22.9 -47.5 30 -14.2 7.2 -17.8 7.7 -33.8 5.2z"/>
  <path d="M481.5 538.4 c-20.2 -2.1 -34.8 -5.3 -51.2 -11.4 -26.4 -9.6 -50.5 -26.3 -85.4 -58.9 -40 -37.4 -55.7 -50.8 -72.6 -62.2 -27.7 -18.5 -52 -26.6 -83.3 -27.6 -17.6 -0.6 -27.8 0.4 -44.3 4.6 -28.7 7.3 -53.1 20.9 -74.8 41.9 l-10.7 10.3 -1.1 -3.3 c-1.5 -4.7 -7.1 -30.2 -7.1 -32.4 0 -2.6 11.9 -12.7 25.5 -21.9 35.7 -23.9 71.2 -35 112 -34.8 25 0 43.8 3.5 65.2 11.9 15.1 5.9 25.5 11.5 42.4 22.9 17.8 12.1 26.2 18.8 57.9 46.5 18.3 16 23.9 20.4 38.2 29.8 35.5 23.2 70.6 33.5 108.7 31.8 32.5 -1.5 65.8 -11.8 96.1 -29.9 10 -5.9 27.9 -19.2 36.8 -27.2 5.8 -5.4 6.2 -5.5 6.2 -3.1 0 1.4 -0.4 3.5 -0.9 4.8 -0.6 1.3 -3.1 8.4 -5.7 15.8 -5.8 16.8 -13.9 35.3 -20.7 47.1 -4.8 8.4 -5.6 9.3 -12.6 13.6 -24.8 15.2 -51.6 25.6 -77.1 29.8 -9.5 1.5 -34 2.7 -41.5 1.9z"/>
  <path d="M455.5 462.5 c-18.6 -4.8 -34.4 -12.1 -52.3 -24.2 -11.2 -7.5 -24.5 -17.5 -23.9 -17.9 0.1 -0.1 2.7 0.2 5.7 0.7 9.1 1.3 30.9 1 40.5 -0.6 21.4 -3.4 43.9 -13 64 -27.1 15.6 -10.9 36 -31.7 48.8 -49.7 5.4 -7.6 10 -14.4 10.3 -15.1 0.3 -0.8 -1 -2.3 -3.3 -3.6 -7.7 -4.6 -37.3 -24.4 -37.3 -25 0 -0.3 1.2 -1.1 2.8 -1.7 1.5 -0.6 12.6 -5.5 24.7 -10.8 12.1 -5.4 25.6 -11.3 30 -13.2 4.4 -1.8 13.9 -6 21 -9.3 20.4 -9.2 44.9 -19.9 45.1 -19.7 0.3 0.3 4.3 64.7 5.4 86.2 0.6 11 1.5 25.8 2 32.9 0.6 7.2 1 15.6 1 18.9 l0 5.9 -8.2 -5.8 c-24.4 -17.1 -31 -21.4 -31.8 -20.9 -0.6 0.4 -2.9 3.4 -5.2 6.8 -17.5 26.1 -43.6 52.7 -66.9 68.2 -11.2 7.5 -27.1 15.8 -39.9 20.9 -5.7 2.2 -21.6 6.7 -23 6.5 -0.3 -0.1 -4.5 -1.1 -9.5 -2.4z"/>
 </g>
</svg>